<svg width="24.000000" height="24.000000" viewBox="0 0 24 24" fill="none" xmlns="http://www.w3.org/2000/svg" xmlns:xlink="http://www.w3.org/1999/xlink">
	<desc>
			Created with Pixso.
	</desc>
	<defs>
		<clipPath id="clip78436_6734">
			<rect rx="0.000000" width="23.000000" height="23.000000" transform="translate(0.500000 0.500000)" fill="white" fill-opacity="0"/>
		</clipPath>
	</defs>
	<rect rx="0.000000" width="23.000000" height="23.000000" transform="translate(0.500000 0.500000)" fill="#FFFFFF" fill-opacity="0"/>
	<g clip-path="url(#clip78436_6734)">
		<path d="M0 2.25C0 2.05 0.07 1.86 0.21 1.71C0.35 1.57 0.55 1.5 0.75 1.5L3 1.5C3.16 1.5 3.33 1.55 3.46 1.65C3.59 1.76 3.68 1.9 3.72 2.06L4.33 4.5L21.75 4.5C21.85 4.5 21.96 4.52 22.06 4.57C22.16 4.61 22.25 4.68 22.32 4.77C22.39 4.85 22.44 4.95 22.47 5.06C22.5 5.16 22.5 5.27 22.48 5.38L20.23 17.38C20.2 17.55 20.11 17.71 19.97 17.82C19.84 17.93 19.67 18 19.5 18L6 18C5.82 18 5.65 17.93 5.52 17.82C5.38 17.71 5.29 17.55 5.26 17.38L3.01 5.41L2.41 3L0.75 3C0.55 3 0.35 2.92 0.21 2.78C0.07 2.63 0 2.44 0 2.25ZM7.5 18C6.7 18 5.94 18.31 5.37 18.87C4.81 19.44 4.5 20.2 4.5 21C4.5 21.79 4.81 22.55 5.37 23.12C5.94 23.68 6.7 24 7.5 24C8.29 24 9.05 23.68 9.62 23.12C10.18 22.55 10.5 21.79 10.5 21C10.5 20.2 10.18 19.44 9.62 18.87C9.05 18.31 8.29 18 7.5 18ZM18 18C17.2 18 16.44 18.31 15.87 18.87C15.31 19.44 15 20.2 15 21C15 21.79 15.31 22.55 15.87 23.12C16.44 23.68 17.2 24 18 24C18.79 24 19.55 23.68 20.12 23.12C20.68 22.55 21 21.79 21 21C21 20.2 20.68 19.44 20.12 18.87C19.55 18.31 18.79 18 18 18ZM7.5 19.5C7.89 19.5 8.27 19.65 8.56 19.93C8.84 20.22 9 20.6 9 21C9 21.39 8.84 21.77 8.56 22.06C8.27 22.34 7.89 22.5 7.5 22.5C7.1 22.5 6.72 22.34 6.43 22.06C6.15 21.77 6 21.39 6 21C6 20.6 6.15 20.22 6.43 19.93C6.72 19.65 7.1 19.5 7.5 19.5ZM18 19.5C18.39 19.5 18.77 19.65 19.06 19.93C19.34 20.22 19.5 20.6 19.5 21C19.5 21.39 19.34 21.77 19.06 22.06C18.77 22.34 18.39 22.5 18 22.5C17.6 22.5 17.22 22.34 16.93 22.06C16.65 21.77 16.5 21.39 16.5 21C16.5 20.6 16.65 20.22 16.93 19.93C17.22 19.65 17.6 19.5 18 19.5Z" fill="#FFFFFF" fill-opacity="1.000000" fill-rule="nonzero"/>
	</g>
</svg>
